<?xml version="1.0" encoding="iso-8859-1"?>
<!-- Generator: Adobe Illustrator 19.0.0, SVG Export Plug-In . SVG Version: 6.00 Build 0)  -->
<svg fill="#eee" version="1.1" id="Layer_1" xmlns="http://www.w3.org/2000/svg" xmlns:xlink="http://www.w3.org/1999/xlink" x="0px" y="0px"
	 viewBox="0 0 512 512" style="enable-background:new 0 0 512 512;" xml:space="preserve">
<g>
	<g>
		<path d="M500.093,345.302v-83.349L392.93,238.14l-59.535-83.349h-47.628V119.07h35.721V83.349H83.349v35.721h35.721v35.721H71.442
			l-59.535,71.442v119.07H0v35.721h47.965c2.962,26.789,25.665,47.628,53.244,47.628c27.579,0,50.282-20.838,53.244-47.628h203.093
			c2.962,26.789,25.665,47.628,53.244,47.628c27.579,0,50.282-20.838,53.244-47.628H512v-35.721H500.093z M315.013,190.512
			l34.019,47.628H238.141v-47.628h0H315.013z M154.791,119.07h95.256v35.721h-95.256V119.07z M119.07,190.512h83.35v47.628h-83.35
			V190.512z M83.349,196.3v41.84H48.483L83.349,196.3z M101.209,392.93c-9.848,0-17.86-8.012-17.86-17.86s8.012-17.86,17.86-17.86
			s17.86,8.012,17.86,17.86S111.058,392.93,101.209,392.93z M410.791,392.93c-9.848,0-17.86-8.012-17.86-17.86
			s8.012-17.86,17.86-17.86s17.86,8.012,17.86,17.86S420.639,392.93,410.791,392.93z M464.372,345.302h-9.029
			c-9.612-14.359-25.976-23.814-44.552-23.814s-34.941,9.455-44.552,23.814H145.762c-9.613-14.359-25.976-23.814-44.552-23.814
			c-18.576,0-34.941,9.455-44.552,23.814h-9.029V273.86h341.384l75.36,16.746V345.302z"/>
	</g>
</g>
<g>
</g>
<g>
</g>
<g>
</g>
<g>
</g>
<g>
</g>
<g>
</g>
<g>
</g>
<g>
</g>
<g>
</g>
<g>
</g>
<g>
</g>
<g>
</g>
<g>
</g>
<g>
</g>
<g>
</g>
</svg>
