<?xml version="1.0" encoding="iso-8859-1"?>
<!-- Generator: Adobe Illustrator 19.0.0, SVG Export Plug-In . SVG Version: 6.00 Build 0)  -->
<svg fill="#eee" version="1.1" id="Layer_1" xmlns="http://www.w3.org/2000/svg" xmlns:xlink="http://www.w3.org/1999/xlink" x="0px" y="0px"
	 viewBox="0 0 512 512" style="enable-background:new 0 0 512 512;" xml:space="preserve">
<g>
	<g>
		<rect y="373.551" width="412.735" height="15.673"/>
	</g>
</g>
<g>
	<g>
		<rect x="99.265" y="425.796" width="412.735" height="15.673"/>
	</g>
</g>
<g>
	<g>
		<rect x="26.122" y="467.592" width="31.347" height="15.673"/>
	</g>
</g>
<g>
	<g>
		<rect x="99.265" y="478.041" width="31.347" height="15.673"/>
	</g>
</g>
<g>
	<g>
		<rect x="193.306" y="462.367" width="31.347" height="15.673"/>
	</g>
</g>
<g>
	<g>
		<rect x="287.347" y="483.265" width="31.347" height="15.673"/>
	</g>
</g>
<g>
	<g>
		<rect x="360.49" y="462.367" width="31.347" height="15.673"/>
	</g>
</g>
<g>
	<g>
		<rect x="444.082" y="472.816" width="31.347" height="15.673"/>
	</g>
</g>
<g>
	<g>
		<polygon points="512,175.02 286.14,175.02 343.738,316.395 208.991,316.395 220.239,279.176 263.083,138.104 277.006,92.056 
			0,92.056 0,107.729 255.892,107.729 249.764,128 203.755,128 203.755,143.673 245.012,143.673 206.932,269.061 151.51,269.061 
			151.51,284.735 202.186,284.735 192.713,316.082 0,316.082 0,316.395 0,331.755 0,332.069 512,332.069 512,331.755 512,316.395 
			512,316.082 360.535,316.082 326.479,232.49 370.939,232.49 370.939,216.816 320.094,216.816 309.452,190.694 512,190.694 		"/>
	</g>
</g>
<g>
	<g>
		<rect x="459.755" y="269.061" width="52.245" height="15.673"/>
	</g>
</g>
<g>
	<g>
		<rect x="381.388" y="263.837" width="36.571" height="15.673"/>
	</g>
</g>
<g>
	<g>
		<rect x="444.082" y="222.041" width="36.571" height="15.673"/>
	</g>
</g>
<g>
	<g>
		<rect x="26.122" y="169.796" width="36.571" height="15.674"/>
	</g>
</g>
<g>
	<g>
		<rect x="99.265" y="148.898" width="36.571" height="15.673"/>
	</g>
</g>
<g>
	<g>
		<rect x="151.51" y="190.694" width="36.571" height="15.673"/>
	</g>
</g>
<g>
	<g>
		<rect x="15.673" y="263.837" width="36.571" height="15.673"/>
	</g>
</g>
<g>
	<g>
		<rect x="78.367" y="232.49" width="36.571" height="15.673"/>
	</g>
</g>
<g>
	<g>
		<path d="M410.122,13.061c-37.45,0-67.918,30.468-67.918,67.918s30.468,67.918,67.918,67.918s67.918-30.468,67.918-67.918
			S447.573,13.061,410.122,13.061z M410.122,133.224c-28.808,0-52.245-23.437-52.245-52.245c0-28.808,23.437-52.245,52.245-52.245
			s52.245,23.437,52.245,52.245C462.367,109.787,438.93,133.224,410.122,133.224z"/>
	</g>
</g>
<g>
</g>
<g>
</g>
<g>
</g>
<g>
</g>
<g>
</g>
<g>
</g>
<g>
</g>
<g>
</g>
<g>
</g>
<g>
</g>
<g>
</g>
<g>
</g>
<g>
</g>
<g>
</g>
<g>
</g>
</svg>
