<?xml version="1.0" encoding="iso-8859-1"?>
<!-- Generator: Adobe Illustrator 19.0.0, SVG Export Plug-In . SVG Version: 6.00 Build 0)  -->
<svg fill="#9d04f5" version="1.1" id="Layer_1" xmlns="http://www.w3.org/2000/svg" xmlns:xlink="http://www.w3.org/1999/xlink" x="0px" y="0px"
	 viewBox="0 0 496 496" style="enable-background:new 0 0 496 496;" xml:space="preserve">
<g>
	<g>
		<g>
			<rect x="480" y="477.408" width="16" height="16"/>
			<path d="M392,413.408h-67.616l-22.144-136H320v-48h-25.568l-13.024-80H296v-48h-14.088c3.976-6.312,6.088-14.368,6.088-24
				c0-54.44-43.424-70.848-45.264-71.52l-9.072-3.296l-1.552,9.512c-2.616,15.944-7.68,23.336-12.568,30.488
				C213.864,50.888,208,59.464,208,77.408c0,9.8,1.864,17.784,5.512,24H200v48h14.592l-13.024,80H176v48h17.752l-22.144,136H104v64
				H0v16h464v-16h-72V413.408z M161.192,477.408H120v-48h49.008L161.192,477.408z M232.744,51.632
				c4.248-6.208,9.32-13.624,12.824-26.224c10.272,6.824,26.432,22.28,26.432,52c0,16.824-7.176,24-24,24c-12.648,0-24-1.832-24-24
				C224,64.408,227.664,59.056,232.744,51.632z M216,117.408h64v16h-64V117.408z M265.944,189.2l-46.712,31.304l9.432-57.936
				L265.944,189.2z M237.768,149.408H265.2l3.6,22.168L237.768,149.408z M273.936,203.104l4.28,26.304H234.68L273.936,203.104z
				 M192,261.408v-16h112v16H192z M296.472,341.528l-83.352-64.12h72.912L296.472,341.528z M207.4,293.192l88.504,68.08
				L183.768,438.36L207.4,293.192z M177.408,477.408l2.888-17.744l0.232,0.336l121.616-83.608l16.448,101.016H177.408z M376,477.408
				h-41.192l-7.816-48H376V477.408z"/>
			<rect x="344" y="445.408" width="16" height="16"/>
			<rect x="136" y="445.408" width="16" height="16"/>
		</g>
	</g>
</g>
<g>
</g>
<g>
</g>
<g>
</g>
<g>
</g>
<g>
</g>
<g>
</g>
<g>
</g>
<g>
</g>
<g>
</g>
<g>
</g>
<g>
</g>
<g>
</g>
<g>
</g>
<g>
</g>
<g>
</g>
</svg>
