<?xml version="1.0" encoding="iso-8859-1"?>
<!-- Generator: Adobe Illustrator 19.0.0, SVG Export Plug-In . SVG Version: 6.00 Build 0)  -->
<svg fill="#29355e" version="1.1" id="Layer_1" xmlns="http://www.w3.org/2000/svg" xmlns:xlink="http://www.w3.org/1999/xlink" x="0px" y="0px"
	 viewBox="0 0 512 512" style="enable-background:new 0 0 512 512;" xml:space="preserve">
<g>
	<g>
		<path d="M442.119,67.243C398.756,23.88,341.093,0,279.753,0h-7.917v237.526h237.526v-7.917
			C509.361,168.267,485.481,110.605,442.119,67.243z M287.67,221.691v-31.67h176.825v-15.835H287.67v-26.392h139.876v-15.835H287.67
			v-26.392h108.206V89.732H287.67V63.34h71.258V47.505H287.67V15.978c54.142,1.956,104.75,23.961,143.25,62.462
			c38.5,38.501,60.507,89.108,62.462,143.251H287.67z"/>
	</g>
</g>
<g>
	<g>
		<path d="M240.165,274.474V52.784h-7.918c-61.341,0-119.004,23.88-162.365,67.243C26.519,163.388,2.639,221.051,2.639,282.392
			s23.88,119.004,67.243,162.365C113.244,488.12,170.907,512,232.247,512s119.004-23.88,162.366-67.243
			c43.362-43.362,67.242-101.024,67.242-162.365v-7.918H240.165z M383.415,433.561c-40.371,40.371-94.056,62.604-151.168,62.604
			S121.45,473.932,81.079,433.561c-40.371-40.371-62.604-94.057-62.604-151.169s22.233-110.798,62.604-151.169
			c38.501-38.501,89.108-60.506,143.251-62.462v205.713H121.402v15.835H224.33h7.918h213.63
			C443.921,344.453,421.917,395.059,383.415,433.561z"/>
	</g>
</g>
<g>
</g>
<g>
</g>
<g>
</g>
<g>
</g>
<g>
</g>
<g>
</g>
<g>
</g>
<g>
</g>
<g>
</g>
<g>
</g>
<g>
</g>
<g>
</g>
<g>
</g>
<g>
</g>
<g>
</g>
</svg>
